<svg width="1449" height="315" viewBox="0 0 1449 315" fill="none" xmlns="http://www.w3.org/2000/svg">
<path d="M353.816 21.3416C354.001 21.354 354.177 21.426 354.318 21.5468C354.459 21.6677 354.557 21.8308 354.598 22.012C354.638 22.1932 354.619 22.3826 354.543 22.552C354.467 22.7213 354.338 22.8615 354.176 22.9516C347.156 27.0016 341.036 29.8916 338.486 38.2716C337.166 42.6116 336.566 47.1816 336.686 51.9816C336.695 52.3308 336.62 52.6785 336.469 52.9927C336.317 53.3068 336.094 53.5772 335.82 53.7786C335.546 53.9801 335.229 54.1062 334.9 54.1451C334.57 54.1841 334.239 54.1347 333.936 54.0016C333.509 53.8149 333.116 53.2782 332.756 52.3916C329.386 44.0516 324.836 37.0016 315.966 34.7116C313.019 33.9449 309.256 33.2116 304.676 32.5116C304.423 32.4716 304.256 32.4083 304.176 32.3216C304.052 32.1903 303.962 32.0313 303.912 31.8579C303.863 31.6844 303.855 31.5014 303.89 31.3237C303.925 31.1461 304.002 30.979 304.115 30.8361C304.227 30.6932 304.371 30.5785 304.536 30.5016C309.886 28.0416 315.736 24.7516 318.896 20.0616C322.646 14.5016 323.246 9.03159 323.376 2.34159C323.396 1.54826 323.583 0.938272 323.936 0.511605C324.084 0.328611 324.277 0.186546 324.495 0.0989772C324.714 0.0114087 324.951 -0.0187685 325.185 0.0113002C325.418 0.041369 325.64 0.130712 325.829 0.270791C326.019 0.410871 326.169 0.597033 326.266 0.811593C327.799 4.21826 328.849 6.49491 329.416 7.64158C334.176 17.3216 343.796 20.5016 353.816 21.3416Z" fill="#FFFFFF"/>
<path d="M292.246 43.282C292.273 43.1411 292.343 43.012 292.446 42.9127C292.55 42.8134 292.681 42.7488 292.823 42.7279C292.965 42.707 293.11 42.7309 293.238 42.7961C293.365 42.8614 293.47 42.9648 293.536 43.092C295.926 47.682 297.956 51.762 303.556 52.632C305.376 52.912 307.609 53.1253 310.256 53.272C310.38 53.2815 310.497 53.3328 310.588 53.4175C310.679 53.5022 310.739 53.6153 310.758 53.7383C310.776 53.8614 310.753 53.9871 310.691 54.0949C310.628 54.2028 310.532 54.2863 310.416 54.332C305.366 56.212 300.596 58.712 299.956 64.642C299.909 65.0553 299.783 66.6254 299.576 69.352C299.559 69.5393 299.482 69.716 299.355 69.855C299.228 69.994 299.06 70.0876 298.875 70.1217C298.69 70.1557 298.499 70.1282 298.331 70.0434C298.163 69.9586 298.028 69.8211 297.946 69.652C294.926 63.292 289.769 60.2487 282.476 60.522C282.325 60.5232 282.178 60.4725 282.06 60.3785C281.942 60.2844 281.859 60.1527 281.827 60.0052C281.794 59.8578 281.813 59.7036 281.88 59.5683C281.947 59.4331 282.059 59.3249 282.196 59.262C287.966 56.832 291.936 53.862 292.006 47.062C292.026 45.222 292.106 43.962 292.246 43.282Z" fill="#FFFFFF"/>
<path d="M779.446 182.882C779.419 191.775 779.443 198.152 779.516 202.012C779.666 209.092 779.006 213.192 773.046 215.732C772.073 216.152 769.909 216.339 766.556 216.292C756.056 216.152 749.316 216.109 746.336 216.162C741.346 216.242 736.736 215.002 734.506 210.532C733.999 209.525 733.739 207.269 733.726 203.762C733.339 130.402 733.106 87.7187 733.026 75.712C732.993 70.392 733.403 67.032 734.256 65.632C736.956 61.172 740.316 60.042 745.996 59.662C769.636 58.092 796.206 55.522 817.026 69.822C841.156 86.402 845.986 115.492 838.246 142.422C833.736 158.072 823.006 170.662 808.446 177.202C799.956 181.022 789.586 182.062 780.196 182.132C779.996 182.135 779.805 182.215 779.665 182.355C779.525 182.496 779.446 182.685 779.446 182.882ZM779.106 107.892L778.956 136.572C778.955 136.758 778.99 136.943 779.06 137.116C779.13 137.289 779.234 137.446 779.365 137.579C779.496 137.712 779.651 137.818 779.823 137.89C779.995 137.963 780.179 138.001 780.366 138.002L782.416 138.012C786.386 138.033 790.201 136.421 793.024 133.531C795.846 130.641 797.444 126.71 797.466 122.602V122.062C797.477 120.028 797.1 118.011 796.358 116.127C795.615 114.244 794.522 112.53 793.139 111.084C791.756 109.639 790.112 108.489 788.299 107.701C786.487 106.913 784.542 106.502 782.576 106.492L780.526 106.482C780.151 106.482 779.791 106.63 779.525 106.894C779.259 107.159 779.109 107.517 779.106 107.892Z" fill="#FFFFFF"/>
<path d="M898.936 165.352C899.156 165.818 899.519 166.062 900.026 166.082C909.333 166.548 917.856 167.025 925.596 167.512C928.649 167.698 930.926 169.072 932.426 171.632C933.273 173.072 933.526 175.782 933.186 179.762C932.339 189.688 931.803 197.838 931.576 204.212C931.286 212.582 931.026 218.292 923.026 219.782C922.379 219.902 919.746 219.842 915.126 219.602C895.786 218.615 877.523 217.772 860.336 217.072C857.063 216.938 854.613 216.385 852.986 215.412C849.686 213.425 848.136 209.892 848.336 204.812C850.943 139.745 852.619 96.3751 853.366 74.7018C853.539 69.6018 854.153 66.3217 855.206 64.8617C857.279 61.9751 860.253 60.4251 864.126 60.2117C864.886 60.1651 873.639 60.4651 890.386 61.1117C900.136 61.4817 903.676 64.3317 903.186 73.8717C901.559 105.852 900.129 136.165 898.896 164.812C898.883 165.092 898.896 165.272 898.936 165.352Z" fill="#FFFFFF"/>
<path d="M627.916 183.722C627.802 183.599 627.658 183.507 627.499 183.456C627.339 183.404 627.169 183.395 627.004 183.43C626.84 183.464 626.688 183.54 626.562 183.651C626.436 183.762 626.341 183.903 626.286 184.062C626.113 184.562 626.046 185.232 626.086 186.072C626.279 190.339 626.529 196.819 626.836 205.512C626.983 209.672 626.493 212.645 625.366 214.432C623.726 217.019 621.109 218.395 617.516 218.562C608.036 218.989 601.403 219.319 597.616 219.552C591.166 219.942 587.406 219.372 584.756 214.072C584.149 212.865 583.859 210.855 583.886 208.042C583.936 201.422 582.976 193.102 582.866 185.262C582.826 181.915 582.756 178.765 582.656 175.812C580.803 119.139 579.856 85.5254 579.816 74.972C579.802 71.0387 581.176 67.9687 583.936 65.762C585.382 64.602 588.249 63.8454 592.536 63.492C606.296 62.3587 616.556 61.6387 623.316 61.332C631.482 60.9653 639.593 61.842 647.646 63.962C665.826 68.752 678.966 81.662 684.456 99.522C686.576 106.409 687.486 114.265 687.186 123.092C686.606 139.912 680.806 155.962 667.906 166.712C667.675 166.905 667.52 167.175 667.471 167.472C667.421 167.769 667.48 168.074 667.636 168.332C668.149 169.192 674.939 180.969 688.006 203.662C689.446 206.162 688.906 210.852 686.566 213.022C684.546 214.882 682.466 215.919 680.326 216.132C678.839 216.279 669.522 216.682 652.376 217.342C650.129 217.429 647.873 216.622 645.606 214.922C644.406 214.022 642.996 212.059 641.376 209.032C635.702 198.399 631.586 190.522 629.026 185.402C628.679 184.702 628.309 184.142 627.916 183.722ZM624.186 110.662L624.666 138.122C624.67 138.327 624.714 138.529 624.796 138.717C624.878 138.905 624.996 139.074 625.144 139.216C625.292 139.358 625.466 139.47 625.657 139.545C625.847 139.62 626.051 139.656 626.256 139.652L628.456 139.612C632.29 139.545 635.94 137.925 638.603 135.108C641.267 132.291 642.724 128.509 642.656 124.592L642.636 123.552C642.566 119.636 640.976 115.907 638.216 113.185C635.455 110.464 631.75 108.974 627.916 109.042L625.716 109.072C625.511 109.076 625.309 109.12 625.121 109.202C624.933 109.284 624.764 109.402 624.621 109.55C624.479 109.698 624.368 109.872 624.293 110.063C624.218 110.254 624.182 110.457 624.186 110.662Z" fill="#FFFFFF"/>
<path d="M529.616 167.682C529.666 171.542 528.646 177.102 533.276 176.802C548.923 175.816 557.619 175.242 559.366 175.082C566.126 174.472 572.216 175.652 572.596 183.052C573.336 197.186 573.833 205.969 574.086 209.402C574.346 212.969 574.033 215.366 573.146 216.592C570.736 219.962 569.096 220.522 564.636 220.792C546.716 221.852 524.773 223.332 498.806 225.232C494.439 225.552 491.349 224.316 489.536 221.522C488.529 219.969 487.826 216.572 487.426 211.332C483.559 160.872 480.259 118.782 477.526 85.0625C477.106 79.8625 478.626 74.8425 483.026 72.1625C484.159 71.4758 486.433 70.9991 489.846 70.7325C512.979 68.9325 534.979 67.3258 555.846 65.9125C558.653 65.7258 560.589 65.9825 561.656 66.6825C565.786 69.3925 565.756 72.8825 566.086 78.3225C566.819 90.2425 567.379 98.4124 567.766 102.832C568.356 109.462 566.696 113.742 559.806 114.022C556.686 114.149 546.279 114.902 528.586 116.282C528.004 116.328 527.461 116.591 527.064 117.019C526.667 117.447 526.447 118.009 526.446 118.592V125.322C526.445 125.638 526.51 125.951 526.635 126.241C526.76 126.532 526.943 126.793 527.173 127.011C527.404 127.228 527.676 127.396 527.974 127.505C528.272 127.613 528.589 127.66 528.906 127.642C535.246 127.282 543.056 126.752 552.336 126.052C556.916 125.712 559.526 129.972 559.686 134.062C559.899 139.356 560.299 146.009 560.886 154.022C561.119 157.182 560.829 159.376 560.016 160.602C558.676 162.616 556.779 163.686 554.326 163.812C546.379 164.232 538.833 164.759 531.686 165.392C531.115 165.445 530.585 165.71 530.201 166.135C529.818 166.559 529.609 167.112 529.616 167.682Z" fill="#FFFFFF"/>
<path d="M989.546 203.462C989.393 203.995 987.936 208.138 985.176 215.892C983.903 219.485 981.649 221.752 978.416 222.692C977.669 222.905 974.439 222.802 968.726 222.382C961.313 221.835 955.456 221.438 951.156 221.192C947.289 220.972 944.533 220.295 942.886 219.162C939.113 216.568 938.186 212.558 940.106 207.132C961.333 147.045 975.906 106.088 983.826 84.2616C985.566 79.4616 986.653 76.5549 987.086 75.5416C990.246 68.0716 996.006 67.5516 1004.15 68.0416C1014.71 68.6883 1024.07 69.4083 1032.23 70.2016C1035.73 70.5416 1038.47 71.9683 1040.46 74.4816C1041.71 76.0683 1042.65 79.0249 1043.29 83.3516C1047.96 115.282 1056.26 160.252 1062.31 200.152C1062.89 204.058 1063.42 207.168 1063.89 209.482C1065.33 216.622 1066.99 224.232 1060.26 227.622C1058.84 228.335 1055.37 228.405 1049.83 227.832C1044.23 227.252 1037.96 226.752 1031.02 226.332C1025.22 225.972 1021.72 223.542 1020.85 217.822C1020.06 212.642 1019.54 208.962 1019.29 206.782C1019.25 206.486 1019.12 206.21 1018.9 206.002C1018.69 205.795 1018.41 205.667 1018.11 205.642L990.086 203.082C989.965 203.071 989.845 203.103 989.746 203.172C989.647 203.242 989.576 203.344 989.546 203.462ZM999.956 161.782C999.919 161.891 999.908 162.007 999.923 162.122C999.938 162.237 999.978 162.346 1000.04 162.443C1000.11 162.539 1000.19 162.62 1000.29 162.678C1000.39 162.737 1000.5 162.772 1000.62 162.782L1014.82 163.922C1014.93 163.931 1015.05 163.914 1015.15 163.871C1015.26 163.829 1015.36 163.763 1015.44 163.679C1015.51 163.594 1015.57 163.492 1015.6 163.382C1015.64 163.272 1015.64 163.155 1015.63 163.042L1010.91 132.942C1010.88 132.774 1010.8 132.621 1010.67 132.506C1010.55 132.391 1010.39 132.321 1010.22 132.307C1010.05 132.293 1009.88 132.337 1009.74 132.43C1009.6 132.523 1009.49 132.661 1009.44 132.822L999.956 161.782Z" fill="#FFFFFF"/>
<path d="M395.676 128.812C391.309 129.152 386.449 129.685 381.096 130.412C376.466 131.042 373.246 130.482 370.796 127.072C370.316 126.398 369.946 124.938 369.686 122.692C368.099 108.932 366.969 97.8083 366.296 89.3216C365.983 85.375 367.019 82.4616 369.406 80.5816C370.826 79.4616 373.879 78.6383 378.566 78.1116C402.719 75.4116 428.059 72.775 454.586 70.2016C458.526 69.8216 461.496 70.8549 463.496 73.3016C464.743 74.8216 465.539 77.455 465.886 81.2016C466.786 90.855 467.533 98.9716 468.126 105.552C468.896 114.032 469.716 121.592 459.636 122.532C452.816 123.178 447.936 123.602 444.996 123.802C444.666 123.824 444.357 123.971 444.131 124.212C443.904 124.453 443.778 124.771 443.776 125.102C443.769 126.755 443.859 128.492 444.046 130.312C447.113 160.325 449.846 189.258 452.246 217.112C452.713 222.498 450.573 226.065 445.826 227.812C445.487 227.938 445.131 228.018 444.766 228.052C434.473 229.045 425.413 229.965 417.586 230.812C409.846 231.652 406.736 226.542 406.436 219.252C406.429 218.992 403.169 189.118 396.656 129.632C396.631 129.395 396.514 129.177 396.332 129.024C396.149 128.871 395.914 128.795 395.676 128.812Z" fill="#FFFFFF"/>
<path d="M1123.93 177.622C1123.88 177.599 1123.83 177.588 1123.78 177.589C1123.73 177.589 1123.68 177.603 1123.63 177.627C1123.59 177.652 1123.55 177.687 1123.52 177.729C1123.49 177.772 1123.47 177.821 1123.47 177.872C1121.79 195.078 1120.28 209.858 1118.94 222.212C1118.51 226.118 1117.88 228.548 1117.06 229.502C1114.74 232.162 1111.61 233.332 1107.79 232.662C1106.74 232.482 1099.68 231.805 1086.62 230.632C1083.28 230.332 1080.93 229.758 1079.58 228.912C1073.71 225.222 1074.87 219.582 1075.37 213.822C1076.93 195.988 1081.06 154.945 1087.77 90.6917C1088.37 84.8717 1089.29 81.0951 1090.53 79.3617C1092.75 76.2417 1096.27 74.9584 1101.1 75.5117C1115.25 77.1384 1123.85 78.1217 1126.91 78.4617C1129.44 78.7484 1131.76 79.6851 1133.87 81.2717C1135.15 82.2317 1136.2 84.4751 1137.02 88.0017C1137.44 89.8084 1141.97 105.492 1150.62 135.052C1150.94 136.165 1151.22 136.885 1151.46 137.212C1151.49 137.26 1151.54 137.297 1151.6 137.317C1151.65 137.338 1151.72 137.34 1151.77 137.325C1151.83 137.31 1151.88 137.278 1151.92 137.233C1151.96 137.187 1151.99 137.131 1152 137.072C1154.09 116.212 1155.42 101.845 1155.99 93.9717C1156.48 87.2817 1157.6 84.0517 1163.58 82.2917C1165.01 81.8717 1167.18 81.8417 1170.09 82.2017C1184 83.9084 1192.31 85.0551 1195.02 85.6417C1198.02 86.2951 1200.14 88.0884 1201.38 91.0217C1201.88 92.2217 1201.86 95.0917 1201.3 99.6317C1195.23 148.622 1191.22 180.452 1186.04 227.342C1185.47 232.462 1184.68 235.558 1183.67 236.632C1179.8 240.722 1176.67 240.642 1170.61 239.862C1160.55 238.582 1154.12 237.845 1151.31 237.652C1146.06 237.292 1142.66 234.768 1141.12 230.082C1134.16 208.882 1128.55 191.558 1124.3 178.112C1124.22 177.872 1124.1 177.708 1123.93 177.622Z" fill="#FFFFFF"/>
<path d="M205.786 259.302C205.185 259.524 204.533 259.569 203.906 259.432C183.599 255.032 163.916 249.405 144.856 242.552C144.623 242.465 138.863 240.298 127.576 236.052C116.596 231.922 104.996 226.222 94.5859 221.902C93.6807 221.523 92.9575 220.814 92.5659 219.922C89.6759 213.372 86.5159 206.732 84.7959 200.202C79.2959 179.448 79.6792 159.675 85.9459 140.882C98.2859 103.862 130.806 77.5317 170.346 77.2917C210.156 77.0517 240.866 103.152 252.806 140.152C262.986 171.692 257.646 205.932 238.236 232.482C230.836 242.592 222.306 249.992 211.336 256.562C209.249 257.808 207.399 258.722 205.786 259.302ZM173.397 136.09C164.543 135.284 155.709 138.286 148.837 144.436C141.965 150.587 137.619 159.38 136.754 168.884C135.889 178.387 138.577 187.821 144.225 195.11C149.874 202.4 158.021 206.948 166.875 207.754C175.728 208.559 184.563 205.557 191.435 199.407C198.307 193.257 202.653 184.463 203.518 174.96C204.383 165.456 201.695 156.022 196.046 148.733C190.398 141.443 182.25 136.896 173.397 136.09Z" fill="#FFFFFF"/>
<path d="M288.376 142.292C288.35 142.092 288.285 141.9 288.184 141.726C288.083 141.552 287.948 141.399 287.787 141.277C287.626 141.155 287.442 141.067 287.246 141.016C287.05 140.965 286.846 140.954 286.646 140.982C280.919 141.795 276.792 142.409 274.266 142.822C270.439 143.449 267.849 143.425 266.496 142.752C262.906 140.942 261.726 138.422 261.306 134.122C260.253 123.489 259.193 114.149 258.126 106.102C257.376 100.442 257.586 96.942 261.596 93.842C262.356 93.2553 264.066 92.7687 266.726 92.382C290.146 89.0087 315.093 85.4853 341.566 81.812C345.833 81.2187 348.649 81.2253 350.016 81.832C354.196 83.672 355.656 85.712 356.236 90.652C358.262 107.899 359.489 118.369 359.916 122.062C360.342 125.689 359.349 128.559 356.936 130.672C355.509 131.912 352.643 132.749 348.336 133.182C345.029 133.509 341.339 134.019 337.266 134.712C337.035 134.75 336.821 134.859 336.654 135.024C336.488 135.189 336.376 135.401 336.336 135.632C336.289 135.899 336.306 136.379 336.386 137.072C342.272 187.299 345.792 216.612 346.946 225.012C347.786 231.112 346.436 236.572 339.876 237.852C339.736 237.879 330.403 239.159 311.876 241.692C307.876 242.232 304.889 241.299 302.916 238.892C301.762 237.485 300.873 234.379 300.246 229.572C298.786 218.459 294.829 189.365 288.376 142.292Z" fill="#FFFFFF"/>
<path d="M1250.98 202.422C1251.2 202.515 1251.38 202.572 1251.51 202.592C1254.11 202.979 1263.66 204.342 1280.16 206.682C1285.01 207.372 1289.91 211.252 1288.84 216.562C1287.65 222.409 1286.28 230.875 1284.74 241.962C1284.12 246.389 1283.34 249.149 1282.4 250.242C1279.45 253.632 1276.53 254.092 1271.76 253.372C1245.82 249.425 1225.92 246.545 1212.06 244.732C1207.64 244.152 1204.83 243.305 1203.63 242.192C1199.56 238.412 1200.4 234.312 1201.15 228.312C1202.9 214.459 1205.7 192.789 1209.55 163.302C1214.11 128.349 1216.76 107.685 1217.5 101.312C1218.1 96.0787 1220.31 92.7087 1224.11 91.202C1226.15 90.3887 1230.3 90.462 1236.56 91.422C1275.48 97.362 1295.32 100.405 1296.09 100.552C1302.29 101.732 1304.87 105.575 1303.84 112.082C1301.68 125.635 1300.45 134.009 1300.13 137.202C1299.74 141.002 1298.92 143.545 1297.67 144.832C1295.66 146.879 1293.19 147.675 1290.26 147.222C1278.52 145.395 1268.08 143.865 1258.93 142.632C1258.51 142.577 1258.09 142.686 1257.75 142.937C1257.41 143.187 1257.19 143.559 1257.13 143.972L1255.86 151.982C1255.82 152.231 1255.83 152.485 1255.89 152.73C1255.95 152.975 1256.06 153.206 1256.21 153.409C1256.36 153.612 1256.55 153.783 1256.77 153.912C1256.98 154.042 1257.22 154.126 1257.48 154.162C1265.34 155.242 1273.33 156.425 1281.47 157.712C1283.82 158.085 1285.59 159.375 1286.77 161.582C1287.48 162.915 1287.56 165.129 1287.02 168.222C1285.8 174.989 1284.98 180.465 1284.56 184.652C1283.7 192.962 1280.5 195.262 1272.81 193.892C1267.01 192.865 1261.14 192.032 1255.21 191.392C1253.26 191.182 1250.94 190.242 1250.49 193.082C1249.97 196.329 1249.65 198.685 1249.55 200.152C1249.51 200.632 1249.63 201.112 1249.89 201.52C1250.14 201.928 1250.53 202.244 1250.98 202.422Z" fill="#FFFFFF"/>
<path d="M1334.93 160.902C1334.9 160.702 1334.81 160.515 1334.67 160.37C1334.53 160.226 1334.35 160.131 1334.15 160.102C1327.5 159.135 1322.19 158.255 1318.21 157.462C1310.08 155.852 1309.78 149.812 1311.1 142.352C1311.89 137.892 1313.31 129.472 1315.36 117.092C1316 113.185 1316.89 110.662 1318.01 109.522C1321.6 105.852 1325.24 105.562 1330.71 106.552C1356.58 111.218 1380.43 115.608 1402.27 119.722C1406.89 120.588 1409.95 121.722 1411.45 123.122C1413.73 125.242 1414.5 128.368 1413.77 132.502C1411.04 147.935 1409.46 157.175 1409.04 160.222C1408.54 163.808 1407.74 166.228 1406.64 167.482C1404.13 170.362 1401.35 171.312 1397.3 170.492C1396.22 170.278 1391.17 169.405 1382.15 167.872C1381.82 167.816 1381.48 167.892 1381.2 168.083C1380.93 168.274 1380.74 168.565 1380.69 168.892C1377.26 187.818 1371.75 217.195 1364.17 257.022C1363.42 260.928 1362.51 263.342 1361.45 264.262C1358.42 266.892 1355.11 267.242 1350.79 266.422C1340.67 264.508 1333.7 263.275 1329.88 262.722C1320.23 261.342 1317.88 257.602 1319.41 248.732C1321.29 237.825 1326.45 209.022 1334.89 162.322C1334.97 161.855 1334.99 161.382 1334.93 160.902Z" fill="#FFFFFF"/>
<path d="M54.2059 159.802C54.2659 159.862 54.2925 159.939 54.2859 160.032C54.2515 160.327 54.0996 160.598 53.8605 160.791C53.6214 160.983 53.3127 161.084 52.9959 161.072C48.0359 160.872 43.5725 160.939 39.6059 161.272C23.7359 162.612 11.4459 171.242 26.7359 186.542C38.2559 198.062 53.3959 207.212 68.3059 215.582C73.1925 218.322 78.3092 221.009 83.6559 223.642C115.509 239.322 148.749 251.679 183.376 260.712C194.826 263.702 248.146 276.332 250.926 260.252C251.796 255.192 245.756 245.942 242.086 240.562C241.593 239.842 241.529 239.155 241.896 238.502C241.968 238.374 242.067 238.262 242.186 238.175C242.306 238.087 242.443 238.025 242.59 237.992C242.737 237.959 242.891 237.956 243.041 237.984C243.192 238.012 243.336 238.069 243.466 238.152C251.996 243.562 260.226 250.782 264.956 259.682C268.886 267.072 263.886 274.552 256.966 277.252C246.176 281.462 233.356 281.212 220.326 280.192C204.333 278.945 188.853 276.069 173.886 271.562C173.037 271.303 172.154 271.172 171.266 271.172C167.479 271.172 165.003 271.179 163.836 271.192C145.623 271.299 129.716 265.519 116.116 253.852C115.416 253.251 114.604 252.796 113.726 252.512C103.496 249.162 95.9559 245.592 84.2159 240.402C78.1692 237.729 70.2392 233.749 60.4259 228.462C44.9959 220.152 -3.27413 191.502 0.175873 170.622C1.95587 159.892 16.0359 155.862 25.4159 155.672C34.6692 155.485 43.7159 156.499 52.5559 158.712C53.0959 158.852 53.6459 159.215 54.2059 159.802Z" fill="#FFFFFF"/>
<path d="M1446.89 205.244C1447.8 196.066 1441.27 187.9 1432.29 187.004C1423.32 186.108 1415.3 192.822 1414.39 202C1413.47 211.177 1420 219.343 1428.98 220.239C1437.95 221.135 1445.97 214.421 1446.89 205.244Z" fill="#FFFFFF"/>
<path d="M102.346 314.872C110.895 314.872 117.826 307.941 117.826 299.392C117.826 290.843 110.895 283.912 102.346 283.912C93.7965 283.912 86.8658 290.843 86.8658 299.392C86.8658 307.941 93.7965 314.872 102.346 314.872Z" fill="#FFFFFF"/>
</svg>
